<svg width="40" height="40" viewBox="0 0 40 40" fill="none" xmlns="http://www.w3.org/2000/svg">
<path d="M34.4131 4.45703L21.9209 13.7351L24.231 8.26117L34.4131 4.45703Z" fill="#E2761B" stroke="#E2761B" stroke-width="0.25" stroke-linecap="round" stroke-linejoin="round"/>
<path d="M5.5744 4.45703L17.9661 13.823L15.769 8.26117L5.5744 4.45703Z" fill="#E4761B" stroke="#E4761B" stroke-width="0.25" stroke-linecap="round" stroke-linejoin="round"/>
<path d="M29.9184 25.9636L26.5913 31.0609L33.71 33.0195L35.7564 26.0766L29.9184 25.9636Z" fill="#E4761B" stroke="#E4761B" stroke-width="0.25" stroke-linecap="round" stroke-linejoin="round"/>
<path d="M4.2561 26.0766L6.29 33.0195L13.4086 31.0609L10.0816 25.9636L4.2561 26.0766Z" fill="#E4761B" stroke="#E4761B" stroke-width="0.25" stroke-linecap="round" stroke-linejoin="round"/>
<path d="M13.0069 17.3508L11.0232 20.3514L18.0916 20.6653L17.8405 13.0696L13.0069 17.3508Z" fill="#E4761B" stroke="#E4761B" stroke-width="0.25" stroke-linecap="round" stroke-linejoin="round"/>
<path d="M26.9805 17.3508L22.0841 12.9817L21.9209 20.6653L28.9768 20.3514L26.9805 17.3508Z" fill="#E4761B" stroke="#E4761B" stroke-width="0.25" stroke-linecap="round" stroke-linejoin="round"/>
<path d="M13.4087 31.0608L17.6523 28.9892L13.9862 26.1267L13.4087 31.0608Z" fill="#E4761B" stroke="#E4761B" stroke-width="0.25" stroke-linecap="round" stroke-linejoin="round"/>
<path d="M22.3352 28.9892L26.5913 31.0608L26.0012 26.1267L22.3352 28.9892Z" fill="#E4761B" stroke="#E4761B" stroke-width="0.25" stroke-linecap="round" stroke-linejoin="round"/>
<path d="M26.5914 31.0608L22.3353 28.9893L22.6743 31.7639L22.6366 32.9315L26.5914 31.0608Z" fill="#D7C1B3" stroke="#D7C1B3" stroke-width="0.25" stroke-linecap="round" stroke-linejoin="round"/>
<path d="M13.4087 31.0608L17.3635 32.9315L17.3384 31.7639L17.6523 28.9893L13.4087 31.0608Z" fill="#D7C1B3" stroke="#D7C1B3" stroke-width="0.25" stroke-linecap="round" stroke-linejoin="round"/>
<path d="M17.4262 24.2938L13.8857 23.2518L16.3842 22.1093L17.4262 24.2938Z" fill="#233447" stroke="#233447" stroke-width="0.25" stroke-linecap="round" stroke-linejoin="round"/>
<path d="M22.5612 24.2938L23.6033 22.1093L26.1143 23.2518L22.5612 24.2938Z" fill="#233447" stroke="#233447" stroke-width="0.25" stroke-linecap="round" stroke-linejoin="round"/>
<path d="M13.4087 31.0609L14.0113 25.9636L10.0816 26.0766L13.4087 31.0609Z" fill="#CD6116" stroke="#CD6116" stroke-width="0.25" stroke-linecap="round" stroke-linejoin="round"/>
<path d="M25.9887 25.9636L26.5913 31.0609L29.9184 26.0766L25.9887 25.9636Z" fill="#CD6116" stroke="#CD6116" stroke-width="0.25" stroke-linecap="round" stroke-linejoin="round"/>
<path d="M28.9768 20.3516L21.9209 20.6654L22.5738 24.2938L23.6158 22.1093L26.1268 23.2517L28.9768 20.3516Z" fill="#CD6116" stroke="#CD6116" stroke-width="0.25" stroke-linecap="round" stroke-linejoin="round"/>
<path d="M13.8858 23.2517L16.3968 22.1093L17.4263 24.2938L18.0917 20.6654L11.0233 20.3516L13.8858 23.2517Z" fill="#CD6116" stroke="#CD6116" stroke-width="0.25" stroke-linecap="round" stroke-linejoin="round"/>
<path d="M11.0233 20.3516L13.9862 26.1268L13.8858 23.2518L11.0233 20.3516Z" fill="#E4751F" stroke="#E4751F" stroke-width="0.25" stroke-linecap="round" stroke-linejoin="round"/>
<path d="M26.1268 23.2518L26.0013 26.1268L28.9768 20.3516L26.1268 23.2518Z" fill="#E4751F" stroke="#E4751F" stroke-width="0.25" stroke-linecap="round" stroke-linejoin="round"/>
<path d="M18.0917 20.6655L17.4263 24.2939L18.2549 28.5751L18.4432 22.938L18.0917 20.6655Z" fill="#E4751F" stroke="#E4751F" stroke-width="0.25" stroke-linecap="round" stroke-linejoin="round"/>
<path d="M21.921 20.6655L21.582 22.9254L21.7326 28.5751L22.5738 24.2939L21.921 20.6655Z" fill="#E4751F" stroke="#E4751F" stroke-width="0.25" stroke-linecap="round" stroke-linejoin="round"/>
<path d="M22.5738 24.2938L21.7326 28.575L22.3352 28.9893L26.0013 26.1268L26.1268 23.2517L22.5738 24.2938Z" fill="#F6851B" stroke="#F6851B" stroke-width="0.25" stroke-linecap="round" stroke-linejoin="round"/>
<path d="M13.8857 23.2517L13.9862 26.1268L17.6522 28.9893L18.2549 28.575L17.4262 24.2938L13.8857 23.2517Z" fill="#F6851B" stroke="#F6851B" stroke-width="0.25" stroke-linecap="round" stroke-linejoin="round"/>
<path d="M22.6366 32.9316L22.6742 31.764L22.3604 31.4878H17.6271L17.3384 31.764L17.3635 32.9316L13.4087 31.0609L14.7897 32.1909L17.5895 34.1369H22.398L25.2103 32.1909L26.5914 31.0609L22.6366 32.9316Z" fill="#C0AD9E" stroke="#C0AD9E" stroke-width="0.25" stroke-linecap="round" stroke-linejoin="round"/>
<path d="M22.3352 28.9893L21.7326 28.575H18.2549L17.6523 28.9893L17.3384 31.7639L17.6271 31.4877H22.3604L22.6742 31.7639L22.3352 28.9893Z" fill="#161616" stroke="#161616" stroke-width="0.25" stroke-linecap="round" stroke-linejoin="round"/>
<path d="M34.9404 14.3378L36.0076 9.21535L34.4131 4.45703L22.3353 13.4212L26.9806 17.3509L33.5468 19.2718L35.0032 17.5769L34.3754 17.125L35.3798 16.2084L34.6014 15.6058L35.6058 14.84L34.9404 14.3378Z" fill="#763D16" stroke="#763D16" stroke-width="0.25" stroke-linecap="round" stroke-linejoin="round"/>
<path d="M3.99249 9.21535L5.05966 14.3378L4.3817 14.84L5.38609 15.6058L4.62024 16.2084L5.62463 17.125L4.99689 17.5769L6.4407 19.2718L13.0069 17.3509L17.6523 13.4212L5.57441 4.45703L3.99249 9.21535Z" fill="#763D16" stroke="#763D16" stroke-width="0.25" stroke-linecap="round" stroke-linejoin="round"/>
<path d="M33.5467 19.2717L26.9805 17.3508L28.9767 20.3515L26.0012 26.1267L29.9184 26.0765H35.7564L33.5467 19.2717Z" fill="#F6851B" stroke="#F6851B" stroke-width="0.25" stroke-linecap="round" stroke-linejoin="round"/>
<path d="M13.0069 17.3508L6.44066 19.2717L4.2561 26.0765H10.0816L13.9862 26.1267L11.0232 20.3515L13.0069 17.3508Z" fill="#F6851B" stroke="#F6851B" stroke-width="0.25" stroke-linecap="round" stroke-linejoin="round"/>
<path d="M21.9209 20.6655L22.3352 13.4213L24.2436 8.26123H15.769L17.6522 13.4213L18.0916 20.6655L18.2423 22.9505L18.2549 28.5751H21.7326L21.7577 22.9505L21.9209 20.6655Z" fill="#F6851B" stroke="#F6851B" stroke-width="0.25" stroke-linecap="round" stroke-linejoin="round"/>
</svg>
